# xmcd
#
# Track frame offsets:
#	150
#	11853
#	23479
#	36699
#	50450
#	64690
#	77327
#	89362
#	102097
#	115572
#	129111
#	141153
#	155354
#	167992
#	180340
#	192929
#	206971
#	218290
#	230097
#	244349
#
# Disc length: 3415 seconds
#
# Revision: 1
# Processed by: cddbd v1.5.2PL0 Copyright (c) Steve Scherf et al.
# Submitted via: audiograbber 1.83.01
#
DISCID=080d5514
DTITLE=Various Artist - Are You From Dixie? - Various C&W Artists, 1931-1944)
DYEAR=1900
DGENRE=Country
TTITLE0=Hugh and Shug's Radio Pals - Are You From Dixie?
TTITLE1=Hugh and Shug's Radio Pals - Five Foot Two, Eyes Of Blue (Has Anybody S
TTITLE1=een My Girl)
TTITLE2=Texas Wanderers - Where the Morning Glories Grow
TTITLE3=Texas Wanderers - Moonlight On the Prairie
TTITLE4=Rodik Twins - Answer To You Are My Sunshine
TTITLE5=Rodik Twins - Did You Ever Go Sailing (Down the River of Memories)
TTITLE6=Bob Dunn's Vagabonds - Juke Box Rag
TTITLE7=Bob Dunn's Vagabonds - You don't Know My Mind
TTITLE8=Tex Fletcher's Lonely Cowboys - Meet Me Tonight In the Cowshed
TTITLE9=Tex Fletcher's Lonely Cowboys - Down On the Old Plantation
TTITLE10=Jimmie Davis - By the Grave of Nobody's Darling (My Darling's Promise)
TTITLE11=Jimmie Davis - Nobody's Lonesome For Me
TTITLE12=Ray Whitley and his 6 Bar Cowboys - The Cowboy and the Lady
TTITLE13=Ray Whitley and his 6 Bar Cowboys - Come On Boys, We're Ridin' Into To
TTITLE13=wn
TTITLE14=Curley Fox - Tennessee Roll
TTITLE15=Gene Autry - Pistol Packin' Papa
TTITLE16=Jimmy Wakely - I'm Sending You Red Roses
TTITLE17=Jimmy Wakely - A Tinly Little Voice In a Tiny Little Prayer
TTITLE18=Red River Dave - Stars Over Laredo
TTITLE19=Jimmie Davis - Prairie of Love
EXTD=
EXTT0=
EXTT1=
EXTT2=
EXTT3=
EXTT4=
EXTT5=
EXTT6=
EXTT7=
EXTT8=
EXTT9=
EXTT10=
EXTT11=
EXTT12=
EXTT13=
EXTT14=
EXTT15=
EXTT16=
EXTT17=
EXTT18=
EXTT19=
PLAYORDER=
